<svg width="96" height="32" viewBox="0 0 96 32" fill="none" xmlns="http://www.w3.org/2000/svg">
<mask id="path-1-outside-1_2739_22547" maskUnits="userSpaceOnUse" x="-0.15625" y="0.460938" width="96" height="31" fill="black">
<rect fill="white" x="-0.15625" y="0.460938" width="96" height="31"/>
<path d="M94.1142 7.40714V7.41201C93.6755 9.1716 92.4155 10.4462 91.5089 11.2505L91.487 11.2699C91.3457 11.3927 91.1976 11.5074 91.0434 11.6136C91.1103 11.7504 91.1666 11.8922 91.2116 12.0376L91.2189 12.0644C91.392 12.6442 91.436 13.2547 91.3481 13.8533C91.1832 14.8539 90.9128 15.8342 90.5414 16.7778C90.3781 17.236 90.2221 17.6698 90.1027 18.0963C89.7737 19.2368 89.3984 20.587 89.0962 21.9664C88.8812 22.9724 88.8058 24.0032 88.872 25.0298C88.9117 25.4833 88.8304 25.9392 88.6365 26.3511C88.4425 26.763 88.1428 27.116 87.768 27.3743C87.0399 27.9361 86.2238 28.3733 85.3528 28.6684C83.9174 29.1047 82.9157 28.7245 82.3284 28.3272C82.2323 28.2623 82.1403 28.1915 82.053 28.1152C81.3277 28.5693 80.5161 28.8681 79.6695 28.9926C79.3314 29.043 78.9902 29.069 78.6483 29.0705C77.9843 29.0894 77.3237 28.9676 76.71 28.7131C76.0963 28.4585 75.5435 28.0771 75.0877 27.5937C74.9677 27.4675 74.8546 27.3349 74.749 27.1964C74.4308 27.4258 74.096 27.631 73.7473 27.8106C72.7642 28.3312 71.641 28.5258 70.5401 28.3662C69.6107 28.2638 68.7311 27.8938 68.0079 27.3012C67.178 26.5649 66.6344 25.5596 66.4726 24.462C66.4212 24.1889 66.3862 23.913 66.3678 23.6358C65.8779 24.3353 65.3491 24.9908 64.8397 25.6074C63.8948 26.8028 62.6961 27.7734 61.3303 28.4491C59.9125 29.1413 58.2877 29.2804 56.7729 28.839C55.9375 28.6327 55.1404 28.2945 54.4114 27.8374C54.0243 27.5856 53.6755 27.2794 53.3756 26.9283C53.0783 27.2354 52.7809 27.5181 52.4958 27.7911C52.3228 27.9568 52.1473 28.1225 51.9767 28.2907C51.7103 28.554 51.3939 28.7613 51.046 28.9003C50.6982 29.0393 50.326 29.1071 49.9515 29.0998C49.7523 29.0995 49.5534 29.0832 49.3568 29.051C48.4903 28.9227 47.6446 28.6801 46.8417 28.3297L46.8173 28.3175C46.005 27.956 45.3108 27.3733 44.814 26.6359C44.0615 27.2511 43.2325 27.7663 42.3477 28.1688C41.4689 28.5938 40.5231 28.8634 39.5523 28.9658C38.6988 29.0611 37.8395 29.0945 36.9812 29.0657C35.5429 29.013 34.1465 28.5681 32.9429 27.7789C31.6849 26.9224 30.7868 25.6321 30.4205 24.1549C30.4132 24.1232 30.4035 24.0915 30.3961 24.0599C29.9824 24.2518 29.5471 24.3934 29.0996 24.4815C27.9345 24.738 26.7201 24.6525 25.6024 24.2353C25.0147 24.0125 24.4933 23.644 24.087 23.1644C23.6808 22.6848 23.403 22.1099 23.2798 21.4936C22.3685 22.7963 21.5384 24.1539 20.794 25.5587C20.716 25.7025 20.638 25.8779 20.5527 26.0607C20.3855 26.4441 20.1933 26.8162 19.9775 27.1745C19.6093 27.7873 19.0855 28.2917 18.4593 28.6367C17.8331 28.9817 17.1268 29.1549 16.4121 29.1388H16.3999C15.6389 29.1608 14.8841 28.9959 14.2016 28.6587C14.1236 28.6172 14.0481 28.5734 13.975 28.5271C13.8702 28.5807 13.7654 28.6319 13.6557 28.683C12.6762 29.1769 11.6181 29.496 10.5289 29.6262L10.3534 29.6457C9.90255 29.6896 9.40782 29.7383 8.88628 29.7383C8.73762 29.7383 8.58652 29.7334 8.43542 29.7261C6.93496 29.6625 5.49388 29.1221 4.32159 28.1834C3.1374 27.2143 2.32744 25.8632 2.03071 24.3621C1.81896 23.3471 1.78679 22.3028 1.93567 21.2767C2.15425 19.7819 2.63876 18.3382 3.36624 17.0142C3.92027 15.9561 4.5809 14.9574 5.33786 14.0336C6.16272 13.0285 7.1396 12.1586 8.23314 11.4552C9.11881 10.8777 10.1091 10.4795 11.1479 10.2829C12.5639 10.0197 13.9238 10.3585 15.3154 11.3211C16.0359 11.8141 16.6554 12.4403 17.1407 13.166C18.0912 11.8378 19.2805 11.0701 20.677 10.8898C21.3819 10.7747 22.1052 10.8764 22.751 11.1815C23.3968 11.4866 23.9348 11.9806 24.2936 12.5982C24.6951 12.3226 25.119 12.0812 25.5609 11.8768C26.4888 11.4192 27.5147 11.1958 28.5488 11.2261C30.1451 11.2968 31.3588 11.8256 32.2557 12.8443C32.6123 13.2507 32.8834 13.7248 33.0526 14.2383C33.4114 13.8033 33.8042 13.3975 34.2273 13.0247C35.354 11.9802 36.7561 11.28 38.268 11.0067C38.8224 10.9272 39.3839 10.9092 39.9423 10.9531C40.0593 10.958 40.1787 10.9629 40.2957 10.9653C41.1408 10.9976 41.9709 11.1981 42.7376 11.5551C43.711 11.9734 44.538 12.6715 45.1138 13.5608C45.2357 13.3585 45.3673 13.1587 45.5062 12.9662C46.3348 11.8183 47.373 11.1408 48.5916 10.9507C49.1315 10.8489 49.6867 10.8598 50.2222 10.9827C50.7578 11.1056 51.2621 11.3378 51.7037 11.6648C52.225 12.0689 52.6178 12.6155 52.8345 13.2385C53.0512 13.8614 53.0826 14.5338 52.9247 15.1742C52.8784 15.3935 52.8297 15.6153 52.7809 15.8346C52.9783 15.413 53.1806 14.9865 53.3926 14.5649C54.0312 13.2781 54.8744 12.3983 55.9687 11.8792C56.6368 11.5464 57.383 11.4018 58.1271 11.4611C58.8712 11.5203 59.5851 11.7812 60.1922 12.2155C60.7429 12.5909 61.418 13.3244 61.5106 14.6892C61.5409 15.513 61.4144 16.3351 61.1378 17.1117C61.0841 17.2872 61.0305 17.4651 60.9745 17.643L61.0768 17.409C61.284 16.9362 61.4936 16.4634 61.7056 15.9955C62.3539 14.5576 63.0192 13.088 64.7959 11.9889C65.1887 11.7347 65.6089 11.5254 66.0485 11.365C67.4255 10.8971 70.2671 11.0116 71.2712 12.8346C71.8061 12.3458 72.4106 11.9393 73.0649 11.6282C73.9564 11.186 74.9383 10.9566 75.9334 10.958L76.026 10.9604C76.786 10.9395 77.5447 11.0357 78.2755 11.2456C78.7453 11.3899 79.1842 11.6205 79.5696 11.9255C80.6614 11.538 82.053 11.5624 83.079 12.3691C83.2813 12.531 83.4615 12.7186 83.6152 12.9272C83.9265 12.4364 84.2805 11.9741 84.6729 11.5453C85.1126 11.0563 85.6431 10.6573 86.235 10.3707C86.0144 9.84525 85.8502 9.29789 85.7452 8.7378C85.6322 8.20361 85.5669 7.66044 85.5502 7.11469V7.07082C85.5232 6.0466 85.8284 5.04115 86.4203 4.20479C86.7853 3.68236 87.2678 3.25295 87.8291 2.95113C88.3904 2.64932 89.0148 2.48353 89.6519 2.46713C90.5552 2.42262 91.4542 2.61857 92.2571 3.03498C93.0133 3.44871 93.6078 4.10527 93.9448 4.89861C94.2818 5.69194 94.3415 6.57571 94.1142 7.40714Z"/>
</mask>
<path d="M94.1142 7.40714V7.41201C93.6755 9.1716 92.4155 10.4462 91.5089 11.2505L91.487 11.2699C91.3457 11.3927 91.1976 11.5074 91.0434 11.6136C91.1103 11.7504 91.1666 11.8922 91.2116 12.0376L91.2189 12.0644C91.392 12.6442 91.436 13.2547 91.3481 13.8533C91.1832 14.8539 90.9128 15.8342 90.5414 16.7778C90.3781 17.236 90.2221 17.6698 90.1027 18.0963C89.7737 19.2368 89.3984 20.587 89.0962 21.9664C88.8812 22.9724 88.8058 24.0032 88.872 25.0298C88.9117 25.4833 88.8304 25.9392 88.6365 26.3511C88.4425 26.763 88.1428 27.116 87.768 27.3743C87.0399 27.9361 86.2238 28.3733 85.3528 28.6684C83.9174 29.1047 82.9157 28.7245 82.3284 28.3272C82.2323 28.2623 82.1403 28.1915 82.053 28.1152C81.3277 28.5693 80.5161 28.8681 79.6695 28.9926C79.3314 29.043 78.9902 29.069 78.6483 29.0705C77.9843 29.0894 77.3237 28.9676 76.71 28.7131C76.0963 28.4585 75.5435 28.0771 75.0877 27.5937C74.9677 27.4675 74.8546 27.3349 74.749 27.1964C74.4308 27.4258 74.096 27.631 73.7473 27.8106C72.7642 28.3312 71.641 28.5258 70.5401 28.3662C69.6107 28.2638 68.7311 27.8938 68.0079 27.3012C67.178 26.5649 66.6344 25.5596 66.4726 24.462C66.4212 24.1889 66.3862 23.913 66.3678 23.6358C65.8779 24.3353 65.3491 24.9908 64.8397 25.6074C63.8948 26.8028 62.6961 27.7734 61.3303 28.4491C59.9125 29.1413 58.2877 29.2804 56.7729 28.839C55.9375 28.6327 55.1404 28.2945 54.4114 27.8374C54.0243 27.5856 53.6755 27.2794 53.3756 26.9283C53.0783 27.2354 52.7809 27.5181 52.4958 27.7911C52.3228 27.9568 52.1473 28.1225 51.9767 28.2907C51.7103 28.554 51.3939 28.7613 51.046 28.9003C50.6982 29.0393 50.326 29.1071 49.9515 29.0998C49.7523 29.0995 49.5534 29.0832 49.3568 29.051C48.4903 28.9227 47.6446 28.6801 46.8417 28.3297L46.8173 28.3175C46.005 27.956 45.3108 27.3733 44.814 26.6359C44.0615 27.2511 43.2325 27.7663 42.3477 28.1688C41.4689 28.5938 40.5231 28.8634 39.5523 28.9658C38.6988 29.0611 37.8395 29.0945 36.9812 29.0657C35.5429 29.013 34.1465 28.5681 32.9429 27.7789C31.6849 26.9224 30.7868 25.6321 30.4205 24.1549C30.4132 24.1232 30.4035 24.0915 30.3961 24.0599C29.9824 24.2518 29.5471 24.3934 29.0996 24.4815C27.9345 24.738 26.7201 24.6525 25.6024 24.2353C25.0147 24.0125 24.4933 23.644 24.087 23.1644C23.6808 22.6848 23.403 22.1099 23.2798 21.4936C22.3685 22.7963 21.5384 24.1539 20.794 25.5587C20.716 25.7025 20.638 25.8779 20.5527 26.0607C20.3855 26.4441 20.1933 26.8162 19.9775 27.1745C19.6093 27.7873 19.0855 28.2917 18.4593 28.6367C17.8331 28.9817 17.1268 29.1549 16.4121 29.1388H16.3999C15.6389 29.1608 14.8841 28.9959 14.2016 28.6587C14.1236 28.6172 14.0481 28.5734 13.975 28.5271C13.8702 28.5807 13.7654 28.6319 13.6557 28.683C12.6762 29.1769 11.6181 29.496 10.5289 29.6262L10.3534 29.6457C9.90255 29.6896 9.40782 29.7383 8.88628 29.7383C8.73762 29.7383 8.58652 29.7334 8.43542 29.7261C6.93496 29.6625 5.49388 29.1221 4.32159 28.1834C3.1374 27.2143 2.32744 25.8632 2.03071 24.3621C1.81896 23.3471 1.78679 22.3028 1.93567 21.2767C2.15425 19.7819 2.63876 18.3382 3.36624 17.0142C3.92027 15.9561 4.5809 14.9574 5.33786 14.0336C6.16272 13.0285 7.1396 12.1586 8.23314 11.4552C9.11881 10.8777 10.1091 10.4795 11.1479 10.2829C12.5639 10.0197 13.9238 10.3585 15.3154 11.3211C16.0359 11.8141 16.6554 12.4403 17.1407 13.166C18.0912 11.8378 19.2805 11.0701 20.677 10.8898C21.3819 10.7747 22.1052 10.8764 22.751 11.1815C23.3968 11.4866 23.9348 11.9806 24.2936 12.5982C24.6951 12.3226 25.119 12.0812 25.5609 11.8768C26.4888 11.4192 27.5147 11.1958 28.5488 11.2261C30.1451 11.2968 31.3588 11.8256 32.2557 12.8443C32.6123 13.2507 32.8834 13.7248 33.0526 14.2383C33.4114 13.8033 33.8042 13.3975 34.2273 13.0247C35.354 11.9802 36.7561 11.28 38.268 11.0067C38.8224 10.9272 39.3839 10.9092 39.9423 10.9531C40.0593 10.958 40.1787 10.9629 40.2957 10.9653C41.1408 10.9976 41.9709 11.1981 42.7376 11.5551C43.711 11.9734 44.538 12.6715 45.1138 13.5608C45.2357 13.3585 45.3673 13.1587 45.5062 12.9662C46.3348 11.8183 47.373 11.1408 48.5916 10.9507C49.1315 10.8489 49.6867 10.8598 50.2222 10.9827C50.7578 11.1056 51.2621 11.3378 51.7037 11.6648C52.225 12.0689 52.6178 12.6155 52.8345 13.2385C53.0512 13.8614 53.0826 14.5338 52.9247 15.1742C52.8784 15.3935 52.8297 15.6153 52.7809 15.8346C52.9783 15.413 53.1806 14.9865 53.3926 14.5649C54.0312 13.2781 54.8744 12.3983 55.9687 11.8792C56.6368 11.5464 57.383 11.4018 58.1271 11.4611C58.8712 11.5203 59.5851 11.7812 60.1922 12.2155C60.7429 12.5909 61.418 13.3244 61.5106 14.6892C61.5409 15.513 61.4144 16.3351 61.1378 17.1117C61.0841 17.2872 61.0305 17.4651 60.9745 17.643L61.0768 17.409C61.284 16.9362 61.4936 16.4634 61.7056 15.9955C62.3539 14.5576 63.0192 13.088 64.7959 11.9889C65.1887 11.7347 65.6089 11.5254 66.0485 11.365C67.4255 10.8971 70.2671 11.0116 71.2712 12.8346C71.8061 12.3458 72.4106 11.9393 73.0649 11.6282C73.9564 11.186 74.9383 10.9566 75.9334 10.958L76.026 10.9604C76.786 10.9395 77.5447 11.0357 78.2755 11.2456C78.7453 11.3899 79.1842 11.6205 79.5696 11.9255C80.6614 11.538 82.053 11.5624 83.079 12.3691C83.2813 12.531 83.4615 12.7186 83.6152 12.9272C83.9265 12.4364 84.2805 11.9741 84.6729 11.5453C85.1126 11.0563 85.6431 10.6573 86.235 10.3707C86.0144 9.84525 85.8502 9.29789 85.7452 8.7378C85.6322 8.20361 85.5669 7.66044 85.5502 7.11469V7.07082C85.5232 6.0466 85.8284 5.04115 86.4203 4.20479C86.7853 3.68236 87.2678 3.25295 87.8291 2.95113C88.3904 2.64932 89.0148 2.48353 89.6519 2.46713C90.5552 2.42262 91.4542 2.61857 92.2571 3.03498C93.0133 3.44871 93.6078 4.10527 93.9448 4.89861C94.2818 5.69194 94.3415 6.57571 94.1142 7.40714Z" fill="#161616"/>
<path d="M94.1142 7.40714V7.41201C93.6755 9.1716 92.4155 10.4462 91.5089 11.2505L91.487 11.2699C91.3457 11.3927 91.1976 11.5074 91.0434 11.6136C91.1103 11.7504 91.1666 11.8922 91.2116 12.0376L91.2189 12.0644C91.392 12.6442 91.436 13.2547 91.3481 13.8533C91.1832 14.8539 90.9128 15.8342 90.5414 16.7778C90.3781 17.236 90.2221 17.6698 90.1027 18.0963C89.7737 19.2368 89.3984 20.587 89.0962 21.9664C88.8812 22.9724 88.8058 24.0032 88.872 25.0298C88.9117 25.4833 88.8304 25.9392 88.6365 26.3511C88.4425 26.763 88.1428 27.116 87.768 27.3743C87.0399 27.9361 86.2238 28.3733 85.3528 28.6684C83.9174 29.1047 82.9157 28.7245 82.3284 28.3272C82.2323 28.2623 82.1403 28.1915 82.053 28.1152C81.3277 28.5693 80.5161 28.8681 79.6695 28.9926C79.3314 29.043 78.9902 29.069 78.6483 29.0705C77.9843 29.0894 77.3237 28.9676 76.71 28.7131C76.0963 28.4585 75.5435 28.0771 75.0877 27.5937C74.9677 27.4675 74.8546 27.3349 74.749 27.1964C74.4308 27.4258 74.096 27.631 73.7473 27.8106C72.7642 28.3312 71.641 28.5258 70.5401 28.3662C69.6107 28.2638 68.7311 27.8938 68.0079 27.3012C67.178 26.5649 66.6344 25.5596 66.4726 24.462C66.4212 24.1889 66.3862 23.913 66.3678 23.6358C65.8779 24.3353 65.3491 24.9908 64.8397 25.6074C63.8948 26.8028 62.6961 27.7734 61.3303 28.4491C59.9125 29.1413 58.2877 29.2804 56.7729 28.839C55.9375 28.6327 55.1404 28.2945 54.4114 27.8374C54.0243 27.5856 53.6755 27.2794 53.3756 26.9283C53.0783 27.2354 52.7809 27.5181 52.4958 27.7911C52.3228 27.9568 52.1473 28.1225 51.9767 28.2907C51.7103 28.554 51.3939 28.7613 51.046 28.9003C50.6982 29.0393 50.326 29.1071 49.9515 29.0998C49.7523 29.0995 49.5534 29.0832 49.3568 29.051C48.4903 28.9227 47.6446 28.6801 46.8417 28.3297L46.8173 28.3175C46.005 27.956 45.3108 27.3733 44.814 26.6359C44.0615 27.2511 43.2325 27.7663 42.3477 28.1688C41.4689 28.5938 40.5231 28.8634 39.5523 28.9658C38.6988 29.0611 37.8395 29.0945 36.9812 29.0657C35.5429 29.013 34.1465 28.5681 32.9429 27.7789C31.6849 26.9224 30.7868 25.6321 30.4205 24.1549C30.4132 24.1232 30.4035 24.0915 30.3961 24.0599C29.9824 24.2518 29.5471 24.3934 29.0996 24.4815C27.9345 24.738 26.7201 24.6525 25.6024 24.2353C25.0147 24.0125 24.4933 23.644 24.087 23.1644C23.6808 22.6848 23.403 22.1099 23.2798 21.4936C22.3685 22.7963 21.5384 24.1539 20.794 25.5587C20.716 25.7025 20.638 25.8779 20.5527 26.0607C20.3855 26.4441 20.1933 26.8162 19.9775 27.1745C19.6093 27.7873 19.0855 28.2917 18.4593 28.6367C17.8331 28.9817 17.1268 29.1549 16.4121 29.1388H16.3999C15.6389 29.1608 14.8841 28.9959 14.2016 28.6587C14.1236 28.6172 14.0481 28.5734 13.975 28.5271C13.8702 28.5807 13.7654 28.6319 13.6557 28.683C12.6762 29.1769 11.6181 29.496 10.5289 29.6262L10.3534 29.6457C9.90255 29.6896 9.40782 29.7383 8.88628 29.7383C8.73762 29.7383 8.58652 29.7334 8.43542 29.7261C6.93496 29.6625 5.49388 29.1221 4.32159 28.1834C3.1374 27.2143 2.32744 25.8632 2.03071 24.3621C1.81896 23.3471 1.78679 22.3028 1.93567 21.2767C2.15425 19.7819 2.63876 18.3382 3.36624 17.0142C3.92027 15.9561 4.5809 14.9574 5.33786 14.0336C6.16272 13.0285 7.1396 12.1586 8.23314 11.4552C9.11881 10.8777 10.1091 10.4795 11.1479 10.2829C12.5639 10.0197 13.9238 10.3585 15.3154 11.3211C16.0359 11.8141 16.6554 12.4403 17.1407 13.166C18.0912 11.8378 19.2805 11.0701 20.677 10.8898C21.3819 10.7747 22.1052 10.8764 22.751 11.1815C23.3968 11.4866 23.9348 11.9806 24.2936 12.5982C24.6951 12.3226 25.119 12.0812 25.5609 11.8768C26.4888 11.4192 27.5147 11.1958 28.5488 11.2261C30.1451 11.2968 31.3588 11.8256 32.2557 12.8443C32.6123 13.2507 32.8834 13.7248 33.0526 14.2383C33.4114 13.8033 33.8042 13.3975 34.2273 13.0247C35.354 11.9802 36.7561 11.28 38.268 11.0067C38.8224 10.9272 39.3839 10.9092 39.9423 10.9531C40.0593 10.958 40.1787 10.9629 40.2957 10.9653C41.1408 10.9976 41.9709 11.1981 42.7376 11.5551C43.711 11.9734 44.538 12.6715 45.1138 13.5608C45.2357 13.3585 45.3673 13.1587 45.5062 12.9662C46.3348 11.8183 47.373 11.1408 48.5916 10.9507C49.1315 10.8489 49.6867 10.8598 50.2222 10.9827C50.7578 11.1056 51.2621 11.3378 51.7037 11.6648C52.225 12.0689 52.6178 12.6155 52.8345 13.2385C53.0512 13.8614 53.0826 14.5338 52.9247 15.1742C52.8784 15.3935 52.8297 15.6153 52.7809 15.8346C52.9783 15.413 53.1806 14.9865 53.3926 14.5649C54.0312 13.2781 54.8744 12.3983 55.9687 11.8792C56.6368 11.5464 57.383 11.4018 58.1271 11.4611C58.8712 11.5203 59.5851 11.7812 60.1922 12.2155C60.7429 12.5909 61.418 13.3244 61.5106 14.6892C61.5409 15.513 61.4144 16.3351 61.1378 17.1117C61.0841 17.2872 61.0305 17.4651 60.9745 17.643L61.0768 17.409C61.284 16.9362 61.4936 16.4634 61.7056 15.9955C62.3539 14.5576 63.0192 13.088 64.7959 11.9889C65.1887 11.7347 65.6089 11.5254 66.0485 11.365C67.4255 10.8971 70.2671 11.0116 71.2712 12.8346C71.8061 12.3458 72.4106 11.9393 73.0649 11.6282C73.9564 11.186 74.9383 10.9566 75.9334 10.958L76.026 10.9604C76.786 10.9395 77.5447 11.0357 78.2755 11.2456C78.7453 11.3899 79.1842 11.6205 79.5696 11.9255C80.6614 11.538 82.053 11.5624 83.079 12.3691C83.2813 12.531 83.4615 12.7186 83.6152 12.9272C83.9265 12.4364 84.2805 11.9741 84.6729 11.5453C85.1126 11.0563 85.6431 10.6573 86.235 10.3707C86.0144 9.84525 85.8502 9.29789 85.7452 8.7378C85.6322 8.20361 85.5669 7.66044 85.5502 7.11469V7.07082C85.5232 6.0466 85.8284 5.04115 86.4203 4.20479C86.7853 3.68236 87.2678 3.25295 87.8291 2.95113C88.3904 2.64932 89.0148 2.48353 89.6519 2.46713C90.5552 2.42262 91.4542 2.61857 92.2571 3.03498C93.0133 3.44871 93.6078 4.10527 93.9448 4.89861C94.2818 5.69194 94.3415 6.57571 94.1142 7.40714Z" stroke="white" stroke-width="2.46154" mask="url(#path-1-outside-1_2739_22547)"/>
<path d="M92.3391 6.96969C92.0467 8.14194 91.1742 9.10459 90.2944 9.88447C89.9818 10.1531 89.6301 10.3726 89.2513 10.5352C88.7931 10.7375 88.4861 10.6083 88.2107 10.1964C87.8696 9.6383 87.6403 9.01914 87.5356 8.37346C87.4428 7.94299 87.3898 7.50491 87.3772 7.06474C87.3526 6.42733 87.5365 5.7993 87.9012 5.2759C88.1039 4.97922 88.3748 4.73544 88.6911 4.56499C89.0074 4.39453 89.36 4.30235 89.7192 4.29619C90.3033 4.26338 90.8855 4.38706 91.4057 4.65444C92.2416 5.08849 92.5585 6.08502 92.3391 6.96969Z" fill="#FF5A50"/>
<path d="M89.4708 12.5866C89.2782 11.9749 88.7153 11.8652 88.1718 11.814C87.2798 11.7336 86.5803 12.182 86.0174 12.7889C85.5536 13.3078 85.149 13.8767 84.811 14.4851C84.1043 15.7073 83.6746 17.057 83.263 18.3971C82.9949 19.2686 82.7602 20.0354 82.4266 21.1662C82.2292 21.8352 82.0059 22.867 81.3866 23.3881C81.2317 23.5309 81.0295 23.6116 80.8188 23.6147C80.5605 23.5782 80.4679 23.3052 80.4557 23.0518C80.441 22.7715 80.441 22.4912 80.4532 22.211C80.5245 21.3519 80.7038 20.5052 80.987 19.691C81.4013 18.3506 81.8473 17.0199 82.2494 15.6746C82.4211 15.2103 82.4289 14.7012 82.2713 14.2319C82.2029 14.0662 82.094 13.9204 81.9545 13.8078C81.3964 13.3691 80.385 13.4423 79.7733 13.8493C79.571 13.9882 79.3712 14.132 79.1591 14.2782C79.1128 14.2026 79.0763 14.149 79.0422 14.0905C78.9066 13.8282 78.7202 13.5955 78.4939 13.406C78.2675 13.2165 78.0057 13.0739 77.7237 12.9865C77.1334 12.8303 76.5231 12.7629 75.9129 12.7867C75.1959 12.7905 74.4895 12.9598 73.8487 13.2814C72.8415 13.791 71.9841 14.5535 71.3604 15.4943C70.6694 16.4372 70.0549 17.4339 69.5228 18.4749C68.9696 19.522 68.5668 20.6419 68.3262 21.8015C68.2447 22.2261 68.1958 22.6563 68.18 23.0883C68.1762 23.4383 68.2081 23.7878 68.275 24.1314C68.3624 24.8146 68.6887 25.4448 69.1963 25.9105C69.6591 26.278 70.2188 26.5032 70.8072 26.5587C71.5269 26.6642 72.2615 26.5361 72.9031 26.1932C73.5992 25.827 74.2253 25.3411 74.7529 24.7577C74.9746 24.5189 75.2086 24.2898 75.4621 24.0266C75.4913 24.1801 75.5132 24.2776 75.5278 24.3751C75.619 25.104 75.9291 25.7881 76.4174 26.337C77.2411 27.2046 78.2964 27.3484 79.4077 27.1851C80.0191 27.0942 80.6044 26.875 81.1251 26.5419C81.3966 26.3689 82.1945 25.4338 82.5058 25.6765C82.8877 25.9743 82.9266 26.5249 83.3541 26.8129C83.576 26.9391 83.8231 27.0143 84.0776 27.0331C84.3321 27.0519 84.5877 27.0138 84.8256 26.9216C85.5057 26.6793 86.1425 26.3297 86.712 25.8859C86.8358 25.8048 86.9336 25.6897 86.9937 25.5544C87.0538 25.4191 87.0736 25.2693 87.0507 25.123C86.9781 23.9338 87.0667 22.7402 87.3139 21.5746C87.6088 20.2367 87.9695 18.9133 88.3473 17.5973C88.7274 16.2569 89.3538 14.9871 89.5439 13.5907C89.5929 13.2547 89.5679 12.912 89.4708 12.5866ZM77.1753 16.7981C76.7884 18.4317 76.0322 19.9549 74.9649 21.2507C74.5939 21.7444 74.1463 22.1756 73.6391 22.5278C73.3393 22.7276 73.0469 22.8007 72.8812 22.4303C72.8358 22.3283 72.807 22.2197 72.7959 22.1086C72.7301 21.4725 73.0444 20.8096 73.2613 20.2296C73.5002 19.5764 73.7674 18.9371 74.0631 18.3116C74.4896 17.4074 74.9892 16.5398 75.7691 15.8891C76.0243 15.6967 76.308 15.5453 76.6099 15.4407C76.8171 15.3578 77.0608 15.543 77.1558 15.7721C77.2693 16.1037 77.2761 16.4625 77.1753 16.7981Z" fill="#FF5A50"/>
<path d="M31.4558 20.184C31.022 21.5317 30.1569 22.4066 28.7385 22.6918C27.9133 22.8795 27.0515 22.8236 26.2575 22.5309C25.9021 22.395 25.5952 22.1566 25.3756 21.8459C25.156 21.5352 25.0338 21.1663 25.0243 20.786C24.9658 19.7697 25.3728 18.8923 25.8456 18.0345C26.043 17.6787 26.2477 17.3253 26.411 16.9524C26.4812 16.7659 26.5079 16.5659 26.489 16.3675C26.4793 16.3015 26.4546 16.2386 26.4169 16.1835C26.3792 16.1285 26.3294 16.0828 26.2713 16.0499C26.2133 16.017 26.1485 15.9978 26.0819 15.9937C26.0153 15.9896 25.9487 16.0007 25.887 16.0263C25.5356 16.1895 25.2077 16.3994 24.9122 16.6502C23.7253 17.7396 22.7724 19.0264 21.8536 20.3448C20.8712 21.7398 19.9774 23.1952 19.1777 24.7024C18.9169 25.1996 18.722 25.7357 18.4271 26.2085C18.2217 26.5586 17.925 26.8463 17.5687 27.0408C17.2123 27.2353 16.8099 27.3292 16.4043 27.3125C15.9371 27.3332 15.472 27.2395 15.0493 27.0396C14.7227 26.8632 14.4727 26.5725 14.3474 26.2231C13.8624 26.4937 13.3823 26.7934 12.8754 27.0323C12.0847 27.4346 11.2306 27.6976 10.3505 27.8097C9.75192 27.8879 9.14809 27.9189 8.54462 27.9023C7.42592 27.8619 6.34965 27.4639 5.47388 26.7666C4.61181 26.0591 4.02533 25.0716 3.81665 23.9761C3.65016 23.1668 3.62706 22.3344 3.74841 21.5171C3.93783 20.237 4.35552 19.0013 4.98158 17.8687C5.47879 16.9197 6.07164 16.0238 6.75092 15.1952C7.45539 14.3371 8.28911 13.5939 9.22214 12.9921C9.91129 12.544 10.6811 12.2344 11.4886 12.0806C12.5342 11.8857 13.4359 12.2464 14.2743 12.8264C14.8576 13.2219 15.3503 13.737 15.7195 14.3374C16.058 14.9497 16.1479 15.6688 15.9705 16.3456C15.7894 17.0845 15.5236 17.8001 15.1784 18.478C14.8616 19.1799 14.5472 19.8818 14.2231 20.5812C14.1695 20.7333 14.0579 20.8579 13.9126 20.9278C13.7673 20.9977 13.6003 21.0071 13.4481 20.9541C12.9963 20.8111 12.5899 20.5522 12.2692 20.2033C11.9485 19.8544 11.7248 19.4276 11.6202 18.9654C11.5443 18.3032 11.6522 17.6329 11.9322 17.0279C12.2222 16.2798 12.5561 15.5486 12.8778 14.8151C12.9075 14.7659 12.9269 14.7111 12.9348 14.6542C12.9426 14.5972 12.9388 14.5393 12.9235 14.4838C12.9082 14.4284 12.8818 14.3767 12.8459 14.3318C12.81 14.2869 12.7653 14.2499 12.7145 14.2228C12.3453 14.3087 12.0106 14.5041 11.7543 14.7834C11.301 15.2318 10.8721 15.7046 10.4626 16.1945C9.63827 17.2242 8.93502 18.3453 8.36672 19.5357C8.01091 20.2202 7.78922 20.9663 7.71357 21.734C7.63825 22.3238 7.65717 22.9219 7.76963 23.5058C7.83138 23.8769 8.01885 24.2156 8.30061 24.4649C8.58236 24.7143 8.94128 24.8592 9.31719 24.8754C10.7589 24.9558 12.19 24.5853 13.4115 23.8153C13.8773 23.4962 14.3248 23.1512 14.7519 22.7819C14.8301 22.7081 14.8888 22.616 14.9225 22.5139C15.3539 21.3611 15.7584 20.1986 16.2166 19.0581C16.5529 18.2124 16.9526 17.3911 17.3279 16.5625C17.6812 15.7485 18.1139 14.9714 18.6196 14.2423C19.1899 13.4405 19.9088 12.8337 20.9105 12.7045C21.7172 12.5997 22.4605 12.8703 22.8455 13.7817C23.1843 14.5835 22.9893 15.3537 22.7286 16.1238C22.6603 16.3212 22.5945 16.5186 22.5092 16.7721C22.9796 16.2603 23.3793 15.7728 23.8301 15.3439C24.5561 14.6077 25.3995 13.9974 26.3257 13.538C26.9892 13.2056 27.7235 13.0392 28.4655 13.053C29.3843 13.0945 30.2421 13.326 30.8855 14.0547C31.1656 14.3838 31.3502 14.7833 31.4193 15.2099C31.5704 16.0019 31.3072 16.7136 31.0147 17.4252C30.7978 17.9516 30.576 18.478 30.4127 19.0215C30.2811 19.4626 30.5151 19.7746 30.983 19.894C31.0868 19.9209 31.1929 19.938 31.2999 19.9452C31.4729 19.9525 31.4973 20.05 31.4558 20.184Z" fill="white"/>
<path d="M69.7049 13.7813C69.3204 12.9203 67.4238 12.8291 66.641 13.096C66.3316 13.2119 66.0363 13.3624 65.7607 13.5446C64.4518 14.3543 63.9863 15.3939 63.3724 16.7519C62.7631 18.0923 62.2025 19.4571 61.5494 20.7755C61.1157 21.6235 60.6221 22.4396 60.0725 23.2175C59.7602 23.7235 59.2596 24.0847 58.6809 24.2216C58.3373 24.2898 58.196 24.1363 58.0741 23.8365C57.9619 23.5613 57.8937 23.2702 57.8718 22.9738C57.8229 22.1226 57.9328 21.2697 58.196 20.4587C58.5835 19.1597 59.0002 17.8705 59.3926 16.574C59.5995 16.0108 59.7003 15.4142 59.6899 14.8144C59.6925 14.605 59.6465 14.3979 59.5556 14.2094C59.4647 14.0208 59.3313 13.8558 59.1659 13.7274C58.8214 13.4756 58.4139 13.3239 57.9886 13.289C57.5632 13.2542 57.1365 13.3376 56.7556 13.53C55.9465 13.9151 55.4177 14.6024 55.0302 15.3822C54.4818 16.4789 53.9871 17.6024 53.4509 18.704C53.0829 19.4668 52.6857 20.2174 52.3006 20.9705C51.8127 22.006 51.2259 22.9919 50.5483 23.9145C50.4411 24.051 50.251 24.2411 50.1291 24.2192C49.9829 24.1972 49.8659 23.9754 49.7416 23.8365C49.7204 23.8111 49.7054 23.7811 49.6978 23.7488C49.5118 23.0774 49.4794 22.3727 49.6027 21.687C49.727 20.912 49.883 20.1395 50.0609 19.3742C50.4118 17.8461 50.8115 16.3278 51.1405 14.7924C51.2257 14.4907 51.2193 14.1704 51.1221 13.8723C51.0249 13.5742 50.8413 13.3117 50.5946 13.1182C50.3488 12.9424 50.0692 12.8196 49.7734 12.7575C49.4776 12.6954 49.1722 12.6954 48.8765 12.7575C48.0649 12.8842 47.4678 13.3765 46.9926 14.0345C46.4106 14.8438 45.9978 15.7623 45.7789 16.7348C45.5913 17.5391 45.467 18.3579 45.3329 19.1768C45.272 19.5545 45.2696 19.9396 45.2233 20.3222C45.21 20.4282 45.165 20.5276 45.0941 20.6074C44.77 20.9461 44.4409 21.2776 44.1022 21.6017C43.4607 22.2202 42.7256 22.7334 41.9239 23.1225C41.4017 23.4022 40.8253 23.5662 40.234 23.6032C39.6427 23.6402 39.0504 23.5494 38.4973 23.3369C38.1396 23.2019 37.8218 22.9784 37.5738 22.6873C37.3258 22.3962 37.1555 22.0471 37.0789 21.6724C37.5542 21.6724 38.0124 21.6773 38.4705 21.6724C39.5548 21.6605 40.6195 21.3817 41.5705 20.8608C42.4668 20.4045 43.1954 19.6758 43.6518 18.7795C44.1681 17.7795 44.2924 16.6227 44.0003 15.5358C43.8701 15.0216 43.6214 14.545 43.2739 14.1442C42.9265 13.7435 42.49 13.4296 41.9995 13.2278C41.4509 12.9682 40.856 12.8207 40.2496 12.794C39.6915 12.746 39.13 12.7517 38.5729 12.8111C37.3997 13.0294 36.3132 13.5781 35.4412 14.3928C34.5145 15.2268 33.7487 16.2238 33.182 17.3343C32.5284 18.5666 32.1242 19.9157 31.9927 21.3044C31.915 22.0984 31.9802 22.8998 32.1852 23.6708C32.4376 24.7259 33.0724 25.6498 33.9668 26.2639C34.8965 26.8675 35.9735 27.2054 37.0814 27.2412C37.8536 27.2643 38.6265 27.2325 39.3942 27.1461C40.1599 27.0589 40.905 26.8412 41.5973 26.5027C42.7378 25.9814 43.7659 25.243 44.6242 24.3288C44.8923 24.0486 45.1482 23.7537 45.3773 23.4978C45.5966 24.0315 45.794 24.5847 46.045 25.1111C46.348 25.7954 46.8918 26.3444 47.5731 26.6538C48.2328 26.9416 48.9278 27.1407 49.6398 27.246C49.8235 27.2939 50.0162 27.2955 50.2007 27.2509C50.3853 27.2062 50.5559 27.1167 50.6975 26.9901C51.1678 26.5271 51.6577 26.0811 52.1159 25.6059C52.3723 25.3221 52.6139 25.0251 52.8397 24.7163C53.1736 24.2898 53.5026 23.856 53.8511 23.4027C53.8901 23.6245 53.9169 23.8122 53.9583 23.9974C54.1752 24.9405 54.5773 25.7594 55.4181 26.3126C55.989 26.6633 56.6116 26.9215 57.263 27.0779C58.3524 27.3997 59.5229 27.3015 60.5434 26.8025C61.6681 26.2396 62.6544 25.4348 63.4313 24.4458C64.0549 23.7114 64.6366 22.9425 65.1739 22.1427C65.9903 20.8901 66.7604 19.6009 67.5062 18.3019C67.8856 17.6409 68.2546 16.9741 68.6212 16.3061C68.9207 15.7607 69.7217 14.799 69.7705 14.1859C69.7833 14.0476 69.7607 13.9084 69.7049 13.7813ZM37.4055 18.5553C37.6566 17.869 38.0354 17.2364 38.5217 16.6909C38.8145 16.3244 39.2195 16.0642 39.6745 15.9501C39.8254 15.9253 39.9802 15.9391 40.1244 15.9902C40.2685 16.0413 40.3975 16.1281 40.4991 16.2424C40.6008 16.3567 40.6719 16.4948 40.7058 16.644C40.7397 16.7932 40.7354 16.9485 40.6932 17.0955C40.3447 18.5773 39.3625 19.4156 37.9344 19.7812C37.6225 19.8336 37.3073 19.8637 36.9912 19.8714C37.1423 19.3839 37.2593 18.9648 37.4055 18.5553Z" fill="white"/>
</svg>
