<svg xmlns="http://www.w3.org/2000/svg" fill="none" viewBox="0 0 74 24" height="24" width="74">
<g clip-path="url(#clip0_3605_10696)">
<path fill="black" d="M18.6654 7.97136C20.8638 5.78579 23.0425 3.62337 25.2149 1.45459C25.4131 1.25678 25.5442 1.15845 25.8033 1.40332C27.1346 2.66158 28.1044 4.12877 28.433 5.94698C28.8813 8.42754 28.3126 10.6563 26.6488 12.5823C25.5928 13.8049 24.2733 14.6127 22.7119 15.0348C22.6587 15.0492 22.6111 15.0843 22.5574 15.1116C22.59 15.2979 22.7522 15.317 22.8732 15.3674C24.8241 16.1797 26.7763 16.9892 28.7307 17.793C28.9911 17.9001 29.1316 18.008 28.9996 18.3295C28.4409 19.6899 27.7148 20.9314 26.5672 21.8915C25.3067 22.9459 23.8664 23.5778 22.2209 23.7324C19.8999 23.9505 17.871 23.2589 16.1465 21.7259C14.7541 20.488 13.9339 18.9202 13.6558 17.0774C13.499 16.0383 13.5345 15.0101 13.8101 13.9923C13.8383 13.8879 13.8706 13.7674 13.6848 13.6139C10.4432 16.8376 7.19586 20.0669 3.95369 23.2911C1.57773 21.4169 0.35789 18.4457 1.02095 15.434C1.71223 12.2943 3.73862 10.3698 6.76447 9.40192C6.71577 9.12986 6.50077 9.09643 6.32647 9.02344C4.43048 8.22889 2.53496 7.43308 0.634681 6.64874C0.406223 6.55449 0.315363 6.46823 0.415226 6.21021C1.16341 4.27697 2.32034 2.68077 4.19461 1.68742C6.42178 0.507052 8.71775 0.362731 11.0511 1.34417C13.5649 2.40148 15.0821 4.30873 15.6995 6.929C15.9672 8.06499 15.9284 9.21445 15.6619 10.3525C15.6235 10.5167 15.5505 10.6751 15.6591 10.9525C16.6769 9.94318 17.6604 8.96798 18.6654 7.97136Z"></path>
<path fill="black" d="M58.6484 21.0026L64.0174 13.6635L58.6484 6.2334H62.7675L66.1478 10.9644L69.3578 6.2334H73.4484L68.1079 13.6635L73.4484 21.0026H69.3578L65.9205 16.2716L62.7675 21.0026H58.6484Z"></path>
<path fill="black" d="M53.2659 1.61792H55.8734V21.0025H52.4162V5.80357C51.8986 6.04106 51.3907 6.22412 50.8927 6.35275C50.3946 6.48139 49.8965 6.54571 49.3984 6.54571V3.19125C50.0625 3.12198 50.7071 2.96861 51.3321 2.73113C51.9572 2.48375 52.6018 2.11268 53.2659 1.61792Z"></path>
<path fill="black" d="M43.0901 1.61792H45.6977V21.0025H42.2404V5.80357C41.7228 6.04106 41.215 6.22412 40.7169 6.35275C40.2188 6.48139 39.7207 6.54571 39.2227 6.54571V3.19125C39.8868 3.12198 40.5313 2.96861 41.1564 2.73113C41.7814 2.48375 42.426 2.11268 43.0901 1.61792Z"></path>
</g>
<defs>
<clipPath id="clip0_3605_10696">
<rect fill="white" height="24" width="74"></rect>
</clipPath>
</defs>
</svg>
